<svg width="299.41px" height="320.96px" viewBox="0 0 299.41 320.96"  xmlns="http://www.w3.org/2000/svg" xml:space="preserve">
    <path 
      d="M129.4,267.6c-11.15,5.98-21.28,14.25-21.28,28.77,0,19.36,21.96,21.24,26.62,21.24,7.93,0,28.72-2.83,31.19-24.65.63-5.58-3.63-11.82-8.83-17.22-1.89-1.96,1.87.81-.08-.85-.65.81-2.04,1.17-3.25,1.38,2.29,1.6-.61-.95,1.61,1.07,4.72,4.28,8.57,9.33,8.57,14.46,0,11.92-14.52,21.33-26.17,21.33s-25.54-7.53-25.54-20.35,10.52-20.42,18.38-23.92" 
      fill="#000000"
      stroke="none"
      strokeWidth="0"
      />
    <path 
      d="M87.9,230.63c-39.15-17.71-45.28,13.91-29.57,24.96,5.78,4.06,12.95,4.93,17.31,1.49,3.04-2.4,2.83-6.48,2.83-6.48,0-6.17-4.62-8.45-8.12-8.45s-6.12,2.62-5.8,5.66c.18,1.75,1.12,3.43,2.59,4.17,1.16.58,2.39.49,3.47-.24.35-.24.44-.71.2-1.06-.23-.34-.7-.43-1.05-.2-.22.15-.41.12-.41.12-2.57-.17-2.61-2.75-2.61-2.75,0-3.39,3.09-3.25,3.09-3.25,4.17,0,6.01,3.48,6.01,6.68s-2.35,4.43-2.35,4.43c-20.18,9.11-39.43-44.8,20.83-17.38" 
      fill="#000000"
      stroke="none"
      strokeWidth="0"
      />
    <path 
      d="M7.69,40.58h284.11c-.46,110.51-62.96,194.46-142.54,242.89C78.88,241.75,11.1,159.84,7.69,40.58M13.44,45.5c3.27,114.42,68.31,193.02,135.83,233.05,76.35-46.47,136.33-127.02,136.76-233.05H13.44" 
      fill="#000000"
      stroke="none"
      fillRule="evenodd"
      strokeWidth="0"
      />
    <path 
      d="M149.64,99.38l-.63.51.65-.49s-.02-.02-.02-.03" 
      fill="#000000"
      stroke="none"
      strokeWidth="0"
      />
    <path 
      d="M142.95,4.19c-6.44-4.85-15.81-4.98-22.25-2.95-.68.21-88.72,30.8-96.79,34.44-7.05,3.19-13.38,2.94-17.37-.66-1.43-1.3-2.22-3-2.22-4.8s.9-3.39,2.22-4.8c2.73-2.91,6.46-2.82,9.07-1.09,3.69,2.44,1.66,6.84.35,8.14-.33.33-.68.58-1.04.78.04-.17.07-.33.07-.51,0-1.13-.92-2.05-2.05-2.05s-2.05.92-2.05,2.05c0,.92.59,1.68,1.42,1.94,1.94.57,3.94.4,5.55-1.05,1.67-1.51,2.59-3.53,2.59-5.69s-.92-4.19-2.59-5.7c-3.92-3.54-10.3-3.54-14.22,0-2.35,2.12-3.64,4.96-3.64,8s1.29,5.88,3.64,8c5.32,4.81,13.35,5.31,22.03,1.39,7.08-3.2,91.75-32.82,96.32-34.26,5.21-1.64,13.17-1.62,18.36,2.29,3.99,3.01,5.92,7.96,5.74,14.71-.24,8.99-8.1,16.03-17.91,16.03-7.66,0-13.9-5.54-13.9-12.35,0-5.21,4.5-9.54,10.39-9.54,4.47,0,8,1.31,8.92,6.01.56,2.84-.64,5.87-2.39,7.43-.28-1.49-1.59-2.62-3.16-2.62-1.78,0-3.22,1.44-3.22,3.22,0,1.35.84,2.51,2.02,2.98,4.38,1.98,10.45-4.06,10.56-9.8.11-6.31-5.58-11.44-12.43-11.44-8.27,0-15,6.17-15,13.76,0,9.19,8.17,16.66,18.21,16.66,12.16,0,21.92-8.89,22.22-20.23.21-8.23-2.3-14.37-7.46-18.27M8.14,32.23s.02.01.02.02c0-.01,0-.02.01-.03-.16-.1-.19-.12-.04.01" 
      fill="#000000"
      stroke="none"
      strokeWidth="0"
      />
    <path 
      d="M149,22.46c.3,11.34,10.06,20.23,22.22,20.23,10.04,0,18.21-7.47,18.21-16.66,0-7.59-6.73-13.76-15-13.76-6.85,0-12.54,5.13-12.43,11.44.1,5.74,6.17,11.78,10.56,9.8,1.18-.48,2.02-1.63,2.02-2.98,0-1.78-1.44-3.22-3.22-3.22-1.57,0-2.88,1.13-3.16,2.62-1.75-1.56-2.95-4.59-2.39-7.43.92-4.7,4.44-6.01,8.92-6.01,5.89,0,10.39,4.33,10.39,9.54,0,6.81-6.23,12.35-13.9,12.35-9.81,0-17.67-7.04-17.91-16.03-.18-6.76,1.75-11.7,5.74-14.71,5.19-3.91,13.15-3.92,18.36-2.29,4.57,1.44,89.24,31.06,96.32,34.26,8.68,3.92,16.71,3.42,22.03-1.39,2.35-2.12,3.64-4.96,3.64-8s-1.29-5.88-3.64-8c-3.92-3.54-10.3-3.54-14.22,0-1.67,1.51-2.59,3.53-2.59,5.7s.92,4.19,2.59,5.69c1.61,1.45,3.61,1.63,5.55,1.05.83-.26,1.42-1.02,1.42-1.94,0-1.13-.92-2.05-2.05-2.05s-2.05.92-2.05,2.05c0,.18.03.35.07.51-.36-.2-.71-.45-1.04-.78-1.32-1.29-3.34-5.69.35-8.14,2.62-1.73,6.34-1.82,9.07,1.09,1.33,1.41,2.23,3,2.23,4.8s-.79,3.51-2.23,4.8c-3.99,3.6-10.32,3.85-17.37.66-8.07-3.65-96.12-34.23-96.79-34.44-6.44-2.03-15.81-1.9-22.25,2.95-5.16,3.9-7.67,10.04-7.46,18.27M291.23,32.21s0,.02.01.03c0,0,.02-.01.02-.02.15-.14.12-.12-.04-.01" 
      fill="#000000"
      stroke="none"
      strokeWidth="0"
      />
    <path 
      d="M276.55,62.73c-5.15,0-9.33-4.18-9.33-9.33,0-.76.1-1.5.27-2.21h-106.25s0,.02,0,.03h-2.05c0,4.91-4.65,8.9-9.56,8.91-4.91,0-9.56-4-9.56-8.91h-2.05s0-.02,0-.03H31.78c.17.71.28,1.45.28,2.21,0,5.15-4.18,9.33-9.33,9.33-.53,0-1.04-.05-1.54-.14,2.86,45.36,16.62,87.07,40.96,124.1,10.2,15.52,22.31,29.96,35.85,43.01,7.82,7.54,16.11,14.61,24.79,21.16,0,0,.84.62,1.71,1.26.37.28.73.55,1.08.8.48.36.84.62.84.62,2.27,1.64,4.37,2.62,6.44,3.12,1.99.57,3.07.42,3.07.42.32,0,.64-.01.96-.03.01,0,.03,0,.04,0h0c6.37-.44,11.6-4.94,12.7-11.06,1.1,6.11,6.33,10.62,12.7,11.05h0s.03,0,.04,0c.32.02.64.03.96.03,0,0,1.08.14,3.07-.42,2.07-.5,4.17-1.48,6.44-3.12,0,0,.36-.26.84-.62.35-.25.71-.51,1.08-.8.87-.64,1.71-1.26,1.71-1.26,8.68-6.55,16.98-13.62,24.79-21.17,13.54-13.05,25.65-27.49,35.85-43.01,24.35-37.03,38.1-78.74,40.96-124.1-.5.09-1.02.14-1.54.14M233.97,184.74c-10.76,16.37-23.43,31.5-37.67,45.05-7.4,7.05-15.24,13.66-23.44,19.79l-.04.03c-.63.46-1.24.87-1.83,1.23-1.13.64-2.99,1.61-4.84,2.25-2,.63-3.23.63-3.23.63-5.68,0-9.48-5.13-9.48-10.81s3.38-10.15,9.07-10.15c3.73,0,6.77,2.9,6.77,6.62,0,3.35-2.44,6.12-5.64,6.65.54-.6.88-1.4.88-2.27,0-1.88-1.52-3.4-3.4-3.4s-3.4,1.52-3.4,3.4c0,1.39.71,2.7,1.9,3.23,0,0,0,0,0,0,.01,0,.03.01.04.02,0,0,.02,0,.02,0,1.18.57,2.54.84,3.94.84,4.99,0,9.1-4.12,9.1-9.11s-4.04-9.02-9.03-9.02c-8.12,0-13,4.81-14.05,11.17-1.05-6.37-5.93-11.17-14.05-11.17-4.99,0-9.03,4.04-9.03,9.02s4.12,9.11,9.11,9.11c1.39,0,2.76-.28,3.93-.84,0,0,.01,0,.02,0,.01,0,.03-.01.04-.02h0c1.19-.53,1.9-1.85,1.9-3.23,0-1.88-1.52-3.4-3.4-3.4s-3.4,1.52-3.4,3.4c0,.87.33,1.67.87,2.27-3.2-.53-5.64-3.3-5.64-6.65,0-3.73,3.04-6.62,6.77-6.62,5.68,0,9.07,4.46,9.07,10.15s-3.79,10.81-9.48,10.81c0,0-1.23,0-3.23-.63-1.84-.63-3.71-1.61-4.84-2.25-.59-.36-1.2-.77-1.83-1.23l-.04-.03c-8.21-6.13-16.04-12.75-23.44-19.79-14.24-13.55-26.92-28.68-37.67-45.05-23.18-35.26-36.6-74.81-40.03-117.78,5.96-1.08,10.58-6.03,11.16-12.15,19.47,0,57.18,0,99.6,0,1.58,5.67,7.43,9.85,13.59,9.86h0s0,0,.01,0,0,0,.01,0h0c6.16-.01,12.01-4.19,13.59-9.87,42.42,0,80.13,0,99.6,0,.58,6.12,5.2,11.06,11.16,12.15-3.43,42.97-16.85,82.51-40.03,117.77" 
      fill="#000000"
      stroke="none"
      strokeWidth="0"
      />
    <polygon 
      points="195.74 268.78 192.04 268.78 192.04 267.45 201.05 267.45 201.05 268.78 197.33 268.78 197.33 279.62 195.74 279.62 195.74 268.78" 
      fill="#000000"
      stroke="none"
      strokeWidth="0"
      />
    <path 
      d="M212.63,274.27c-.09-1.7-.2-3.76-.2-5.26h-.03c-.43,1.41-.92,2.94-1.54,4.62l-2.15,5.91h-1.19l-1.99-5.8c-.58-1.73-1.05-3.29-1.39-4.73h-.03c-.04,1.52-.13,3.54-.24,5.38l-.32,5.22h-1.5l.85-12.18h2.01l2.08,5.89c.51,1.5.9,2.84,1.23,4.1h.04c.32-1.23.76-2.57,1.3-4.1l2.17-5.89h2l.76,12.18h-1.55l-.29-5.35" 
      fill="#000000"
      stroke="none"
      strokeWidth="0"
      />
    <path 
      d="M246.03,75.6v22.86c0,1.83-2.2,2.67-4.26,2.67s-4.26-.83-4.26-2.67v-22.86h-6.72v23.99c0,4.54,5.04,7.5,7.73,7.89v15.31h6.95v-15.32c2.26-.43,7.16-3.24,7.16-7.87v-23.99h-6.6" 
      fill="#000000"
      stroke="none"
      strokeWidth="0"
      />
    <polygon 
      points="214.4 115.28 214.4 75.6 207.8 75.6 207.8 122.79 227.02 122.79 227.02 115.28 214.4 115.28" 
      fill="#000000"
      stroke="none"
      strokeWidth="0"
      />
    <polygon 
      points="140.26 122.79 159.03 122.79 159.03 115.28 146.98 115.28 146.98 101.08 157.67 101.08 157.67 94.02 146.98 94.02 146.98 82.89 159.03 82.89 159.03 75.6 140.26 75.6 140.26 122.79" 
      fill="#000000"
      stroke="none"
      strokeWidth="0"
      />
    <path 
      d="M118.2,106.34c-.96-3.66-8.09-30.86-8.09-30.86l-7.11.14,13.28,47.29h4.17l13.16-47.29-7.1-.14s-7.33,27.2-8.31,30.86" 
      fill="#000000"
      stroke="none"
      strokeWidth="0"
      />
    <path 
      d="M67.63,101.99c-.11-.34-.23-.68-.46-.91-.8-1.59-1.82-2.73-2.96-3.52-.14-.1-.26-.17-.37-.23.28-.29.56-.58.83-.91.46-.68.91-1.36,1.25-2.16.34-.8.57-1.71.8-2.61.11-.8.23-1.82.23-2.84,0-2.16-.23-3.98-.8-5.69-.46-1.71-1.25-3.07-2.39-4.32-1.02-1.14-2.39-2.05-3.98-2.61-1.48-.57-3.3-.91-5.23-.91h-8.53v47.97h9.1c1.25,0,2.39,0,3.41-.11,1.02-.11,1.82-.34,2.61-.68.68-.23,1.48-.57,2.05-1.02.68-.57,1.36-1.02,1.93-1.7.57-.68,1.14-1.48,1.59-2.28.45-.8.79-1.7,1.13-2.73.68-2.05.91-4.09.91-6.36,0-2.05-.23-3.87-.8-5.46-.12-.34-.23-.68-.34-.91M62.32,97.52l.02.03v.02s-.04-.01-.06-.02c.01,0,.02-.02.03-.03M60.12,90.27c-.34.68-.68,1.25-1.13,1.71-.45.34-.91.68-1.59.91-.11.11-.23.11-.34.23-.79.23-1.82.45-3.07.45h-.8v-11.37h1.93c.91,0,1.7.11,2.39.45.57.23,1.14.57,1.59,1.02.45.46.8,1.02,1.02,1.59.23.68.46,1.37.46,2.39s-.23,1.93-.46,2.61M53.31,101.99h2.84c1.36,0,2.39.22,3.18.91.23.11.34.23.46.34.12.12.34.34.46.46l.63-.51s.01.02.02.03l-.65.49c.46.57.79,1.36,1.02,2.27.23,1.02.34,2.16.34,3.41,0,1.7-.23,2.95-.68,3.98-.11.23-.22.34-.34.57,0,.11-.11.22-.23.45-.45.45-1.02.79-1.7,1.02-.68.34-1.48.45-2.5.45h-2.84v-13.87Z" 
      fill="#000000"
      stroke="none"
      strokeWidth="0"
      />
    <polygon 
      points="96.28 82.89 96.28 75.72 77.51 75.72 77.51 122.79 96.28 122.79 96.28 115.28 84.12 115.28 84.12 101.08 94.92 101.08 94.92 94.02 84.12 94.02 84.12 82.89 96.28 82.89" 
      fill="#000000"
      stroke="none"
      strokeWidth="0"
      />
    <path 
      d="M192.19,80.21c-2.34-2.34-5.03-4.61-9.97-4.61h-11.6v47.19h6.83s.11-16.84.12-17.87c4.22-.26,7.13.41,8.85,2.06,2.39,2.3,2.24,6.27,2.1,10.11-.07,1.85-.14,3.6.06,5.2l.07.5h6.83l-.07-.64c-.11-.99-.15-2.05-.15-3.17,0-.95.02-1.94.05-2.96.03-1.01.05-2.04.05-3.07,0-5.03-.67-9.94-5.04-11.91h.01c1.52-1.18,3.19-2.52,3.75-3.55,1.43-2.75,1.43-2.92,1.61-5.84l.05-.77c.04-.49.05-.97.05-1.44,0-3.74-1.14-6.63-3.62-9.22M177.46,98.08c0-1.09.1-14.6.1-15.57,4.02-.37,7.12.28,8.96,1.92,1.44,1.29,2.17,3.22,2.17,5.73-.7,6.23-4.99,7.73-11.24,7.92" 
      fill="#000000"
      stroke="none"
      strokeWidth="0"
      />
    <rect 
      x="117.85" y="140.06" width="6.72" height="47.2" 
      fill="#000000"
      stroke="none"
      strokeWidth="0"
      />
    <path 
      d="M96.14,159.16h-9.09c0-1.07-.11-19.1-.11-19.1h-6.72v47.2h6.72v-21.49h9.2v21.49h6.72v-47.2h-6.72v19.1" 
      fill="#000000"
      stroke="none"
      strokeWidth="0"
      />
    <polygon 
      points="146.51 140.17 139.79 140.17 139.79 187.25 159.02 187.25 159.02 179.85 146.51 179.85 146.51 140.17" 
      fill="#000000"
      stroke="none"
      strokeWidth="0"
      />
    <polygon 
      points="176.07 139.83 169.35 139.83 169.35 187.02 188.57 187.02 188.57 179.51 176.07 179.51 176.07 139.83" 
      fill="#000000"
      stroke="none"
      strokeWidth="0"
      />
    <path 
      d="M209.53,158.49l-2.18-2.04-.05-.04c-3.77-2.42-4.68-5.03-4.68-6.98,0-.7.12-1.32.26-1.81.53-1.7,1.65-2.84,3.32-3.4,2.86-.95,7.11,0,10.34,2.34l.91.66v-8.68l-.37-.14c-5.74-2.22-11.36-2.2-15.4.05-3.39,1.89-5.54,5.19-6.4,9.82v.07s-.01.07-.01.07c.25,5.12,1.52,9.36,6.94,13.39-.05-.04,2.4,2.12,2.4,2.12,4.03,3.47,7.51,6.46,6.25,12.3-.38,1.78-1.48,3.04-3.15,3.66-3.1,1.14-7.57-.03-11.4-2.97l-.93-.71v8.71l.35.15c6.24,2.76,11.46,3.19,15.51,1.28,3.3-1.56,5.68-4.64,6.87-8.93l.02-.07v-.38c.21-1.14.31-2.22.31-3.24,0-7.03-4.7-11.35-8.92-15.21" 
      fill="#000000"
      stroke="none"
      strokeWidth="0"
      />
  </svg>
  